<svg x="0" y="0" width="48" height="48" version="1.1" xmlns="http://www.w3.org/2000/svg" xmlns:xlink="http://www.w3.org/1999/xlink"><defs><linearGradient x1="11.9906" y1="10.48942" x2="59.29087" y2="60.79205" gradientUnits="userSpaceOnUse" id="color-1"><stop offset="0" stop-color="#000000" stop-opacity="0.7"></stop><stop offset="1" stop-color="#000000" stop-opacity="0"></stop></linearGradient><filter id="dropshadow"><feColorMatrix type="matrix" values="0 0 0 0 .05  0 0 0 0 .15  0 0 0 0 .1  0 0 0 .8 0"></feColorMatrix> <feOffset dx="0" dy="1"></feOffset> <feGaussianBlur stdDeviation="1"></feGaussianBlur> <feComposite in="SourceGraphic"></feComposite></filter></defs><g fill="none" stroke="none" stroke-width="none" stroke-linecap="butt" stroke-linejoin="miter" stroke-miterlimit="none" stroke-dasharray="" stroke-dashoffset="0" font-family="none" font-weight="normal" font-size="none" text-anchor="start" mix-blend-mode="normal"><g fill="#000000" stroke="none" stroke-width="1" stroke-miterlimit="4" font-family="'Open Sans', sans-serif" font-size="14"></g><path d="M3,24c0,-11.59798 9.40202,-21 21,-21c11.59798,0 21,9.40202 21,21c0,11.59798 -9.40202,21 -21,21c-11.59798,0 -21,-9.40202 -21,-21z" fill="#37474f" stroke-width="1" stroke-miterlimit="10" font-family="sans-serif" font-size="12" filter="url(#dropshadow)"></path><path d="M18.84184,44.36182l-6.85124,-6.85124l0,-27.02117l3.00235,0l3.00235,3.00235l0,-3.00235l12.0094,0l3.00235,3.00235l0,-3.00235l3.00235,0l8.35242,8.35242c0.41677,1.65032 0.63818,3.37838 0.63818,5.15816c0,11.59798 -9.40202,21 -21,21c-1.77978,0 -3.50785,-0.22141 -5.15816,-0.63818z" fill="url(#color-1)" stroke-width="1" stroke-miterlimit="10" font-family="sans-serif" font-size="12"></path><path d="M36.00941,10.48942l0,27.02116l-3.00235,0l0,-3.00235l-3.00235,0l0,3.00235l-12.00941,0l0,-3.00235l-3.00235,0l0,3.00235l-3.00235,0l0,-27.02116l3.00235,0l0,3.00235l3.00235,0l0,-3.00235l12.00941,0l0,3.00235l3.00235,0l0,-3.00235z M33.00705,16.49412l-3.00235,0l0,3.00235l3.00235,0z M33.00705,22.49882l-3.00235,0l0,3.00235l3.00235,0z M33.00705,28.50353l-3.00235,0l0,3.00235l3.00235,0z M17.9953,16.49412l-3.00235,0l0,3.00235l3.00235,0z M17.9953,22.49882l-3.00235,0l0,3.00235l3.00235,0z M17.9953,28.50353l-3.00235,0l0,3.00235l3.00235,0z" fill="#f44336" stroke="none" stroke-width="0" stroke-miterlimit="4" font-family="'Open Sans', sans-serif" font-size="14"></path></g></svg>