<svg x="0" y="0" width="48" height="48" version="1.1" xmlns="http://www.w3.org/2000/svg" xmlns:xlink="http://www.w3.org/1999/xlink"><defs><linearGradient x1="10.48942" y1="13.19154" x2="58.72378" y2="56.02166" gradientUnits="userSpaceOnUse" id="color-1"><stop offset="0" stop-color="#000000" stop-opacity="0.7"></stop><stop offset="1" stop-color="#000000" stop-opacity="0"></stop></linearGradient><filter id="dropshadow"><feColorMatrix type="matrix" values="0 0 0 0 .05  0 0 0 0 .15  0 0 0 0 .1  0 0 0 .8 0"></feColorMatrix> <feOffset dx="0" dy="1"></feOffset> <feGaussianBlur stdDeviation="1"></feGaussianBlur> <feComposite in="SourceGraphic"></feComposite></filter></defs><g fill="none" stroke="none" stroke-width="none" stroke-linecap="butt" stroke-linejoin="miter" stroke-miterlimit="none" stroke-dasharray="" stroke-dashoffset="0" font-family="none" font-weight="normal" font-size="none" text-anchor="start" mix-blend-mode="normal"><g fill="#000000" stroke="none" stroke-width="1" stroke-miterlimit="4" font-family="'Open Sans', sans-serif" font-size="14"></g><g fill="#000000" stroke="none" stroke-width="1" stroke-miterlimit="4" font-family="'Open Sans', sans-serif" font-size="14"></g><path d="M3,24c0,-11.59798 9.40202,-21 21,-21c11.59798,0 21,9.40202 21,21c0,11.59798 -9.40202,21 -21,21c-11.59798,0 -21,-9.40202 -21,-21z" fill="#37474f" stroke-width="1" stroke-miterlimit="10" font-family="sans-serif" font-size="12" filter="url(#dropshadow)"></path><path d="M22.18613,44.92275l-10.9055,-10.9055c-0.48891,-0.48891 -0.79121,-1.16444 -0.79121,-1.9109l0.01351,-16.2127c0.00001,-1.49291 1.19569,-2.7021 2.6886,-2.70211c0,0 0.00001,0 0.00001,0c0,0 1.35105,0 1.35105,0l5.40423,5.40423l1.35106,0l15.42148,15.42148c0,0 0,0 0.00001,0l-15.42147,-15.42147l-2.70211,-5.40421l-0.00002,-0.00002l2.70212,0l5.40423,5.40423l1.35106,0l9.45741,9.45741l0,-0.00001l-9.4574,-9.4574l-2.70211,-5.40421l-0.00002,-0.00002l2.70212,0l5.40423,5.40423l1.35106,0l2.70212,2.70212c0,0 0,-0.00001 0,-0.00001l-2.70211,-2.70211l-2.70212,-5.40423l5.40423,0l7.17649,7.17649c0.20569,1.17976 0.31293,2.39334 0.31293,3.63197c0,11.59798 -9.40202,21 -21,21c-0.61107,0 -1.21604,-0.0261 -1.81387,-0.07725z M33.4574,34.80846l-0.16432,-0.16432c-0.1061,0.04824 -0.20847,0.1032 -0.30658,0.16432z" fill="url(#color-1)" stroke-width="1" stroke-miterlimit="10" font-family="sans-serif" font-size="12"></path><path d="M37.51058,13.19154l0,18.91481c0,1.49292 -1.2092,2.70212 -2.70212,2.70212l-21.61693,0c-1.49292,0 -2.70212,-1.2092 -2.70212,-2.70212l0.01351,-16.2127c0,-1.49292 1.19569,-2.70212 2.68861,-2.70212l1.35106,0l2.70212,5.40423l4.05317,0l-2.70212,-5.40423l2.70212,0l2.70212,5.40423l4.05317,0l-2.70212,-5.40423l2.70212,0l2.70212,5.40423l4.05317,0l-2.70212,-5.40423z" fill="#f44336" stroke="none" stroke-width="0" stroke-miterlimit="4" font-family="'Open Sans', sans-serif" font-size="14"></path></g></svg>